<?xml version="1.0" encoding="UTF-8" standalone="no"?>
<svg
   data-name="Layer 1"
   viewBox="0 0 96.306702 63.641556"
   x="0px"
   y="0px"
   version="1.1"
   id="svg10"
   sodipodi:docname="noun-ps5-controller-4239781.svg"
   width="96.306702"
   height="63.641556"
   inkscape:version="1.4.2 (f4327f4, 2025-05-13)"
   xmlns:inkscape="http://www.inkscape.org/namespaces/inkscape"
   xmlns:sodipodi="http://sodipodi.sourceforge.net/DTD/sodipodi-0.dtd"
   xmlns="http://www.w3.org/2000/svg"
   xmlns:svg="http://www.w3.org/2000/svg">
  <defs
     id="defs10" />
  <sodipodi:namedview
     id="namedview10"
     pagecolor="#ffffff"
     bordercolor="#000000"
     borderopacity="0.25"
     inkscape:showpageshadow="2"
     inkscape:pageopacity="0.0"
     inkscape:pagecheckerboard="0"
     inkscape:deskcolor="#d1d1d1"
     inkscape:zoom="9.72"
     inkscape:cx="48.096708"
     inkscape:cy="44.290123"
     inkscape:window-width="2560"
     inkscape:window-height="1417"
     inkscape:window-x="1072"
     inkscape:window-y="-8"
     inkscape:window-maximized="1"
     inkscape:current-layer="svg10" />
  <g
     id="g1"
     transform="translate(-1.8334693,-18.180832)">
    <path
       d="m 88.85,24.18 a 3,3 0 0 0 -1,-1.4 3,3 0 0 0 -1.14,-0.39 L 86.4,22.33 v -1.25 c 0,0 -3.34,-2.21 -5.4,-2.52 -2.06,-0.31 -6.73,-0.67 -7.07,0 a 5.53,5.53 0 0 0 -0.37,1.67 c -1.54,-0.2 -3.09,-0.38 -4.63,-0.55 A 2,2 0 0 0 68.22,19.32 18.91,18.91 0 0 0 64.67,18.78 L 61.9,18.65 56.08,18.39 H 43.93 l -5.81,0.26 -2.77,0.13 a 19.11,19.11 0 0 0 -3.56,0.54 1.88,1.88 0 0 0 -0.69,0.36 c -1.55,0.17 -3.1,0.35 -4.65,0.55 a 5.24,5.24 0 0 0 -0.37,-1.67 c -0.33,-0.67 -5,-0.31 -7.06,0 -2.06,0.31 -5.45,2.52 -5.45,2.52 v 1.25 l -0.32,0.06 a 3,3 0 0 0 -1.13,0.39 3.13,3.13 0 0 0 -1,1.4 C 4.82,38.42 0.68,54 2.12,69.52 c 0.33,3.64 1.17,7.59 4,9.88 a 11.5,11.5 0 0 0 6.17,2.16 20,20 0 0 0 2.26,0.26 2,2 0 0 0 0.91,-0.17 c 0.65,-0.36 0.9,-1.56 1.19,-2.19 0.59,-1.27 1.18,-2.54 1.75,-3.82 1.1,-2.5 2.13,-5 3,-7.6 a 27.82,27.82 0 0 1 2,-4.93 9.85,9.85 0 0 1 0.95,-1.37 l 0.11,-0.13 a 8.63,8.63 0 0 1 3.1,-2.09 v 0 a 8.82,8.82 0 0 1 2.46,-0.29 h 0.33 1.07 l 1.62,0.24 a 66.62,66.62 0 0 0 8.6,0.12 h 16.63 a 66.67,66.67 0 0 0 8.6,-0.12 c 0.54,-0.07 1.07,-0.16 1.61,-0.24 h 1.08 0.32 a 8.93,8.93 0 0 1 2.47,0.29 v 0 a 8.55,8.55 0 0 1 3.1,2.09 l 0.12,0.14 a 9.2,9.2 0 0 1 1,1.36 27.82,27.82 0 0 1 2,4.93 c 0.9,2.58 1.93,5.1 3,7.6 0.57,1.28 1.15,2.55 1.74,3.82 0.29,0.63 0.54,1.83 1.2,2.19 a 2,2 0 0 0 0.9,0.17 19.46,19.46 0 0 0 2.26,-0.26 11.47,11.47 0 0 0 6.17,-2.16 c 2.86,-2.29 3.69,-6.24 4,-9.88 C 99.32,54 95.17,38.42 88.85,24.18 Z M 31.56,20.64 a 0.84,0.84 0 0 1 0.51,-0.36 18.46,18.46 0 0 1 3.32,-0.5 l 2.78,-0.13 5.76,-0.26 h 12.13 l 5.78,0.26 2.77,0.13 a 18.25,18.25 0 0 1 3.31,0.5 0.84,0.84 0 0 1 0.51,0.36 4.49,4.49 0 0 1 0.24,2.58 c 0,0.2 -0.24,1.66 -2.24,10.72 l -0.11,0.5 c -0.17,1.06 -1,4.51 -4,4.64 H 37.75 c -3.1,-0.13 -3.9,-3.58 -4.08,-4.66 0,0 0,-0.21 -0.11,-0.51 -1.93,-8.72 -2.22,-10.44 -2.23,-10.73 a 4.41,4.41 0 0 1 0.23,-2.54 z m 3,34.5 a 5.61,5.61 0 1 1 5.61,-5.61 5.61,5.61 0 0 1 -5.59,5.61 z M 46,42.42 A 0.56,0.56 0 1 1 46.56,42.98 0.56,0.56 0 0 1 46,42.42 Z m 1.4,2.09 A 0.56,0.56 0 1 1 47.9,44 0.56,0.56 0 0 1 47.35,44.51 Z m 4,-0.56 A 0.56,0.56 0 1 1 50.85,43.39 0.56,0.56 0 0 1 51.39,44 Z m -0.27,-1.53 a 0.56,0.56 0 1 1 0.56,0.56 0.56,0.56 0 0 1 -0.57,-0.56 z M 50,43 A 0.56,0.56 0 1 1 50.56,42.44 0.56,0.56 0 0 1 50,43 Z m -0.27,1 A 0.56,0.56 0 1 1 49.17,43.44 0.56,0.56 0 0 1 49.72,44 Z m -1.4,-1 A 0.56,0.56 0 1 1 48.89,42.44 0.56,0.56 0 0 1 48.32,43 Z M 52,55.12 c -0.15,0 -2,0 -2,0 0,0 -1.82,0 -2,0 -0.18,0 -0.27,-0.28 -0.27,-0.52 0,-0.24 0.2,-0.46 0.32,-0.46 h 3.83 c 0.13,0 0.32,0.23 0.32,0.46 0,0.23 -0.08,0.49 -0.2,0.52 z m 0.68,-10.61 a 0.56,0.56 0 1 1 0.56,-0.56 0.56,0.56 0 0 1 -0.59,0.56 z M 53.49,43 A 0.56,0.56 0 1 1 54.05,42.44 0.56,0.56 0 0 1 53.49,43 Z M 65.41,55.14 A 5.61,5.61 0 1 1 71,49.53 5.61,5.61 0 0 1 65.41,55.14 Z m 31.48,14.28 c -0.3,3.16 -1,7 -3.66,9.2 A 8.71,8.71 0 0 1 89.44,80.28 6.19,6.19 0 0 1 88.91,79.53 10.12,10.12 0 0 1 88.31,78 c -0.33,-0.88 -0.71,-1.78 -1,-2.69 -0.11,-0.42 -2.2,-7 -2.45,-7.5 -0.25,-0.5 -2,-4.86 -2.33,-5.5 C 82.2,61.67 79.89,56.5 79.7,56.12 A 61.52,61.52 0 0 0 72.63,44.53 c -1.68,-2 -4.31,-4.18 -4.85,-6.89 -0.11,-0.55 -0.28,-2.5 -0.28,-2.5 a 11.33,11.33 0 0 1 -0.64,2.53 12.94,12.94 0 0 1 -1.63,1.95 6.53,6.53 0 0 1 -2.48,1.25 c -0.77,0 -12.8,0 -12.8,0 0,0 -12,0 -12.81,0 a 6.48,6.48 0 0 1 -2.47,-1.25 12.37,12.37 0 0 1 -1.64,-1.95 11.92,11.92 0 0 1 -0.64,-2.53 c 0,0 -0.16,2 -0.28,2.5 -0.54,2.71 -3.16,4.85 -4.84,6.89 A 61,61 0 0 0 20.2,56.12 c -0.2,0.38 -2.56,5.55 -2.84,6.19 -0.28,0.64 -2.08,5 -2.33,5.5 -0.25,0.5 -2.33,7.08 -2.44,7.5 -0.25,0.91 -0.63,1.81 -1,2.69 a 11.3,11.3 0 0 1 -0.6,1.53 6.19,6.19 0 0 1 -0.53,0.75 8.65,8.65 0 0 1 -3.79,-1.66 c -2.69,-2.15 -3.37,-6 -3.66,-9.2 -1.25,-13.54 1.75,-28.63 9,-44.84 a 2.28,2.28 0 0 1 0.61,-1 2.56,2.56 0 0 1 0.78,-0.24 c 5.59,-1.12 11.29,-2 17,-2.61 a 7.35,7.35 0 0 0 -0.1,2.46 c 0,0.31 0.23,1.77 2.25,10.91 0.07,0.29 0.11,0.47 0.11,0.48 0.53,3.26 2.45,5.36 5,5.47 h 24.63 c 2.56,-0.11 4.48,-2.21 5,-5.45 0,0 0,-0.2 0.11,-0.48 2,-9.16 2.26,-10.62 2.26,-10.89 a 7.86,7.86 0 0 0 -0.1,-2.5 c 5.69,0.62 11.38,1.49 17,2.61 a 2.41,2.41 0 0 1 0.77,0.24 2.38,2.38 0 0 1 0.62,1 c 7.18,16.21 10.2,31.3 8.94,44.84 z"
       id="path1" />
  </g>
  <g
     data-name="buttons right"
     id="g4"
     transform="translate(-1.8334693,-18.180832)">
    <circle
       cx="72.910004"
       cy="36.299999"
       r="3.28"
       id="circle1" />
    <circle
       cx="80.019997"
       cy="29.24"
       r="3.27"
       id="circle2" />
    <circle
       cx="87.080002"
       cy="36.23"
       r="3.21"
       id="circle3" />
    <circle
       cx="80.029999"
       cy="43.32"
       r="3.28"
       id="circle4" />
  </g>
  <g
     data-name="Start buttons"
     id="g5"
     transform="translate(-1.8334693,-18.180832)">
    <path
       d="m 72.42,23.47 a 0.86,0.86 0 0 0 -0.42,0.19 1.66,1.66 0 0 0 -0.32,0.55 9.1,9.1 0 0 0 -0.48,3 c 0.2,0.74 0.76,0.71 0.76,0.71 a 2.3,2.3 0 0 0 0.8,0 1,1 0 0 0 0.51,-0.55 16.77,16.77 0 0 0 0.41,-1.84 5.77,5.77 0 0 0 0.14,-1.45 C 73.75,24 73.64,23.47 72.42,23.47 Z"
       id="path4" />
    <path
       d="m 27.58,23.47 a 0.86,0.86 0 0 1 0.42,0.19 1.66,1.66 0 0 1 0.32,0.55 9.36,9.36 0 0 1 0.48,3 C 28.6,28 28,28 28,28 a 2.31,2.31 0 0 1 -0.8,0 1,1 0 0 1 -0.51,-0.55 16.77,16.77 0 0 1 -0.41,-1.84 5.32,5.32 0 0 1 -0.14,-1.45 c 0.11,-0.16 0.22,-0.69 1.44,-0.69 z"
       id="path5" />
  </g>
  <g
     data-name="Directional buttons"
     id="g9"
     transform="translate(-1.8334693,-18.180832)">
    <path
       d="m 21.72,28.06 c -0.5,0 -1.72,0 -1.72,0 0,0 -1.22,0 -1.72,0 -0.5,0 -1.22,0.87 -1.22,1.26 v 3.17 c 0,0.42 2.36,2.78 2.39,2.81 a 1.37,1.37 0 0 0 0.27,0 h 0.56 a 1.37,1.37 0 0 0 0.27,0 c 0,0 2.39,-2.39 2.39,-2.81 v -3.17 c 0,-0.39 -0.72,-1.27 -1.22,-1.26 z"
       id="path6" />
    <path
       d="m 21.72,44.48 h -3.44 c -0.5,0 -1.22,-0.87 -1.22,-1.26 v -3.17 c 0,-0.42 2.36,-2.79 2.39,-2.81 a 1.37,1.37 0 0 1 0.27,0 h 0.56 a 1.37,1.37 0 0 1 0.27,0 c 0,0 2.39,2.39 2.39,2.81 v 3.17 c 0,0.39 -0.72,1.27 -1.22,1.26 z"
       id="path7" />
    <path
       d="m 28.21,38 c 0,-0.5 0,-1.72 0,-1.72 0,0 0,-1.22 0,-1.72 0,-0.5 -0.87,-1.22 -1.26,-1.22 h -3.17 c -0.42,0 -2.79,2.36 -2.81,2.39 A 1.37,1.37 0 0 0 21,36 v 0.56 a 1.37,1.37 0 0 0 0,0.27 c 0,0 2.39,2.39 2.81,2.39 H 27 c 0.34,-0.01 1.22,-0.73 1.21,-1.22 z"
       id="path8" />
    <path
       d="m 11.79,38 c 0,-0.5 0,-1.72 0,-1.72 0,0 0,-1.22 0,-1.72 0,-0.5 0.87,-1.22 1.26,-1.22 h 3.17 c 0.42,0 2.79,2.36 2.81,2.39 a 1.37,1.37 0 0 1 0,0.27 v 0.56 a 1.37,1.37 0 0 1 0,0.27 c 0,0 -2.39,2.39 -2.81,2.39 H 13.05 C 12.66,39.21 11.78,38.49 11.79,38 Z"
       id="path9" />
  </g>
</svg>
